<svg width="100" height="100" viewBox="0 0 100 100" xmlns="http://www.w3.org/2000/svg">
  <defs>
    <linearGradient id="religionGrad" x1="0%" y1="0%" x2="100%" y2="100%">
      <stop offset="0%" style="stop-color:#F59E0B;stop-opacity:1" />
      <stop offset="100%" style="stop-color:#FBBF24;stop-opacity:1" />
    </linearGradient>
    <filter id="glow" x="-50%" y="-50%" width="200%" height="200%">
      <feGaussianBlur stdDeviation="2" result="coloredBlur"/>
      <feMerge> 
        <feMergeNode in="coloredBlur"/>
        <feMergeNode in="SourceGraphic"/>
      </feMerge>
    </filter>
  </defs>
  
  <!-- Фон -->
  <circle cx="50" cy="50" r="45" fill="url(#religionGrad)" opacity="0.1" stroke="url(#religionGrad)" stroke-width="1"/>
  
  <!-- Буддийская ступа -->
  <g transform="translate(50, 50)">
    <!-- Основание -->
    <rect x="-15" y="15" width="30" height="8" fill="url(#religionGrad)" rx="2"/>
    
    <!-- Средняя часть -->
    <rect x="-12" y="7" width="24" height="8" fill="url(#religionGrad)" rx="2"/>
    
    <!-- Верхняя часть -->
    <rect x="-8" y="-1" width="16" height="8" fill="url(#religionGrad)" rx="2"/>
    
    <!-- Шпиль -->
    <rect x="-3" y="-8" width="6" height="7" fill="url(#religionGrad)" rx="1"/>
    
    <!-- Круг на шпиле -->
    <circle cx="0" cy="-12" r="3" fill="url(#religionGrad)"/>
    
    <!-- Лучи света -->
    <g stroke="url(#religionGrad)" stroke-width="2" opacity="0.6">
      <line x1="0" y1="-15" x2="0" y2="-25"/>
      <line x1="-8" y1="-12" x2="-15" y2="-19"/>
      <line x1="8" y1="-12" x2="15" y2="-19"/>
      <line x1="-6" y1="-8" x2="-12" y2="-14"/>
      <line x1="6" y1="-8" x2="12" y2="-14"/>
    </g>
  </g>
  
  <!-- Мандала -->
  <g transform="translate(50, 50)" opacity="0.3">
    <circle cx="0" cy="0" r="25" fill="none" stroke="url(#religionGrad)" stroke-width="1"/>
    <circle cx="0" cy="0" r="20" fill="none" stroke="url(#religionGrad)" stroke-width="1"/>
    <circle cx="0" cy="0" r="15" fill="none" stroke="url(#religionGrad)" stroke-width="1"/>
    
    <!-- Крест -->
    <line x1="-25" y1="0" x2="25" y2="0" stroke="url(#religionGrad)" stroke-width="1"/>
    <line x1="0" y1="-25" x2="0" y2="25" stroke="url(#religionGrad)" stroke-width="1"/>
    
    <!-- Диагонали -->
    <line x1="-18" y1="-18" x2="18" y2="18" stroke="url(#religionGrad)" stroke-width="1"/>
    <line x1="18" y1="-18" x2="-18" y2="18" stroke="url(#religionGrad)" stroke-width="1"/>
  </g>
  
  <!-- Точки мандалы -->
  <g transform="translate(50, 50)">
    <circle cx="0" cy="-25" r="2" fill="url(#religionGrad)"/>
    <circle cx="0" cy="25" r="2" fill="url(#religionGrad)"/>
    <circle cx="-25" cy="0" r="2" fill="url(#religionGrad)"/>
    <circle cx="25" cy="0" r="2" fill="url(#religionGrad)"/>
    <circle cx="-18" cy="-18" r="2" fill="url(#religionGrad)"/>
    <circle cx="18" cy="-18" r="2" fill="url(#religionGrad)"/>
    <circle cx="-18" cy="18" r="2" fill="url(#religionGrad)"/>
    <circle cx="18" cy="18" r="2" fill="url(#religionGrad)"/>
  </g>
</svg>
